<svg xmlns="http://www.w3.org/2000/svg" width="765" height="300" viewBox="0 0 765 300" font-family="'SF Mono','JetBrains Mono',Menlo,Consolas,monospace">
  <rect width="765" height="300" fill="#1e2429"/>
  <rect x="30" y="30" width="705" height="240" rx="16" fill="#232a2e" stroke="#3a444a" stroke-width="1.5"/>
  <rect x="90" y="96" width="13" height="13" rx="1" fill="#8a9a9a"/><rect x="90" y="111" width="13" height="13" rx="1" fill="#8a9a9a"/><rect x="105" y="96" width="13" height="13" rx="1" fill="#8a9a9a"/><rect x="120" y="96" width="13" height="13" rx="1" fill="#8a9a9a"/><rect x="135" y="96" width="13" height="13" rx="1" fill="#8a9a9a"/><rect x="135" y="111" width="13" height="13" rx="1" fill="#8a9a9a"/><rect x="165" y="96" width="13" height="13" rx="1" fill="#8a9a9a"/><rect x="165" y="111" width="13" height="13" rx="1" fill="#8a9a9a"/><rect x="180" y="96" width="13" height="13" rx="1" fill="#8a9a9a"/><rect x="195" y="96" width="13" height="13" rx="1" fill="#8a9a9a"/><rect x="210" y="96" width="13" height="13" rx="1" fill="#8a9a9a"/><rect x="210" y="111" width="13" height="13" rx="1" fill="#8a9a9a"/><rect x="240" y="96" width="13" height="13" rx="1" fill="#8a9a9a"/><rect x="240" y="111" width="13" height="13" rx="1" fill="#8a9a9a"/><rect x="255" y="96" width="13" height="13" rx="1" fill="#8a9a9a"/><rect x="270" y="96" width="13" height="13" rx="1" fill="#8a9a9a"/><rect x="285" y="96" width="13" height="13" rx="1" fill="#8a9a9a"/><rect x="285" y="111" width="13" height="13" rx="1" fill="#8a9a9a"/><rect x="315" y="96" width="13" height="13" rx="1" fill="#8a9a9a"/><rect x="315" y="111" width="13" height="13" rx="1" fill="#8a9a9a"/><rect x="330" y="96" width="13" height="13" rx="1" fill="#8a9a9a"/><rect x="345" y="96" width="13" height="13" rx="1" fill="#8a9a9a"/><rect x="360" y="111" width="13" height="13" rx="1" fill="#8a9a9a"/><rect x="390" y="96" width="13" height="13" rx="1" fill="#a7c080"/><rect x="390" y="111" width="13" height="13" rx="1" fill="#a7c080"/><rect x="435" y="96" width="13" height="13" rx="1" fill="#a7c080"/><rect x="435" y="111" width="13" height="13" rx="1" fill="#a7c080"/><rect x="465" y="96" width="13" height="13" rx="1" fill="#a7c080"/><rect x="465" y="111" width="13" height="13" rx="1" fill="#a7c080"/><rect x="480" y="96" width="13" height="13" rx="1" fill="#a7c080"/><rect x="495" y="96" width="13" height="13" rx="1" fill="#a7c080"/><rect x="510" y="96" width="13" height="13" rx="1" fill="#a7c080"/><rect x="510" y="111" width="13" height="13" rx="1" fill="#a7c080"/><rect x="540" y="96" width="13" height="13" rx="1" fill="#a7c080"/><rect x="540" y="111" width="13" height="13" rx="1" fill="#a7c080"/><rect x="555" y="96" width="13" height="13" rx="1" fill="#a7c080"/><rect x="570" y="96" width="13" height="13" rx="1" fill="#a7c080"/><rect x="585" y="96" width="13" height="13" rx="1" fill="#a7c080"/><rect x="615" y="96" width="13" height="13" rx="1" fill="#a7c080"/><rect x="630" y="96" width="13" height="13" rx="1" fill="#a7c080"/><rect x="630" y="111" width="13" height="13" rx="1" fill="#a7c080"/><rect x="645" y="96" width="13" height="13" rx="1" fill="#a7c080"/><rect x="660" y="96" width="13" height="13" rx="1" fill="#a7c080"/><rect x="90" y="126" width="13" height="13" rx="1" fill="#8a9a9a"/><rect x="90" y="141" width="13" height="13" rx="1" fill="#8a9a9a"/><rect x="135" y="126" width="13" height="13" rx="1" fill="#8a9a9a"/><rect x="135" y="141" width="13" height="13" rx="1" fill="#8a9a9a"/><rect x="165" y="126" width="13" height="13" rx="1" fill="#8a9a9a"/><rect x="165" y="141" width="13" height="13" rx="1" fill="#8a9a9a"/><rect x="210" y="126" width="13" height="13" rx="1" fill="#8a9a9a"/><rect x="210" y="141" width="13" height="13" rx="1" fill="#8a9a9a"/><rect x="240" y="126" width="13" height="13" rx="1" fill="#8a9a9a"/><rect x="240" y="141" width="13" height="13" rx="1" fill="#8a9a9a"/><rect x="255" y="126" width="13" height="13" rx="1" fill="#8a9a9a"/><rect x="270" y="126" width="13" height="13" rx="1" fill="#8a9a9a"/><rect x="285" y="126" width="13" height="13" rx="1" fill="#8a9a9a"/><rect x="315" y="126" width="13" height="13" rx="1" fill="#8a9a9a"/><rect x="315" y="141" width="13" height="13" rx="1" fill="#8a9a9a"/><rect x="360" y="126" width="13" height="13" rx="1" fill="#8a9a9a"/><rect x="360" y="141" width="13" height="13" rx="1" fill="#8a9a9a"/><rect x="390" y="126" width="13" height="13" rx="1" fill="#a7c080"/><rect x="390" y="141" width="13" height="13" rx="1" fill="#a7c080"/><rect x="435" y="126" width="13" height="13" rx="1" fill="#a7c080"/><rect x="435" y="141" width="13" height="13" rx="1" fill="#a7c080"/><rect x="465" y="126" width="13" height="13" rx="1" fill="#a7c080"/><rect x="465" y="141" width="13" height="13" rx="1" fill="#a7c080"/><rect x="480" y="126" width="13" height="13" rx="1" fill="#a7c080"/><rect x="495" y="126" width="13" height="13" rx="1" fill="#a7c080"/><rect x="510" y="126" width="13" height="13" rx="1" fill="#a7c080"/><rect x="510" y="141" width="13" height="13" rx="1" fill="#a7c080"/><rect x="540" y="126" width="13" height="13" rx="1" fill="#a7c080"/><rect x="555" y="126" width="13" height="13" rx="1" fill="#a7c080"/><rect x="570" y="126" width="13" height="13" rx="1" fill="#a7c080"/><rect x="585" y="126" width="13" height="13" rx="1" fill="#a7c080"/><rect x="585" y="141" width="13" height="13" rx="1" fill="#a7c080"/><rect x="630" y="126" width="13" height="13" rx="1" fill="#a7c080"/><rect x="630" y="141" width="13" height="13" rx="1" fill="#a7c080"/><rect x="90" y="156" width="13" height="13" rx="1" fill="#8a9a9a"/><rect x="105" y="156" width="13" height="13" rx="1" fill="#8a9a9a"/><rect x="120" y="156" width="13" height="13" rx="1" fill="#8a9a9a"/><rect x="135" y="156" width="13" height="13" rx="1" fill="#8a9a9a"/><rect x="165" y="156" width="13" height="13" rx="1" fill="#8a9a9a"/><rect x="165" y="171" width="13" height="13" rx="1" fill="#8a9a9a"/><rect x="180" y="156" width="13" height="13" rx="1" fill="#8a9a9a"/><rect x="195" y="156" width="13" height="13" rx="1" fill="#8a9a9a"/><rect x="210" y="156" width="13" height="13" rx="1" fill="#8a9a9a"/><rect x="240" y="156" width="13" height="13" rx="1" fill="#8a9a9a"/><rect x="255" y="156" width="13" height="13" rx="1" fill="#8a9a9a"/><rect x="270" y="156" width="13" height="13" rx="1" fill="#8a9a9a"/><rect x="285" y="156" width="13" height="13" rx="1" fill="#8a9a9a"/><rect x="315" y="156" width="13" height="13" rx="1" fill="#8a9a9a"/><rect x="360" y="156" width="13" height="13" rx="1" fill="#8a9a9a"/><rect x="405" y="156" width="13" height="13" rx="1" fill="#a7c080"/><rect x="420" y="156" width="13" height="13" rx="1" fill="#a7c080"/><rect x="465" y="156" width="13" height="13" rx="1" fill="#a7c080"/><rect x="510" y="156" width="13" height="13" rx="1" fill="#a7c080"/><rect x="540" y="156" width="13" height="13" rx="1" fill="#a7c080"/><rect x="555" y="156" width="13" height="13" rx="1" fill="#a7c080"/><rect x="570" y="156" width="13" height="13" rx="1" fill="#a7c080"/><rect x="585" y="156" width="13" height="13" rx="1" fill="#a7c080"/><rect x="630" y="156" width="13" height="13" rx="1" fill="#a7c080"/><rect x="645" y="156" width="13" height="13" rx="1" fill="#a7c080"/>
  <text x="90" y="232" fill="#7fbbb3" font-size="19">❯</text>
  <text x="112" y="232" fill="#9aa39a" font-size="19">rent GPUs · run llama.cpp · wire your coding agent</text>
</svg>
