<svg xmlns="http://www.w3.org/2000/svg" width="689" height="232" viewBox="0 0 689 232" font-family="'SF Mono','JetBrains Mono',Menlo,Consolas,monospace">
  <rect width="689" height="232" fill="#1e2429"/>
  <rect x="20" y="20" width="649" height="192" rx="16" fill="#232a2e" stroke="#3a444a" stroke-width="1.5"/>
  <rect x="52" y="64" width="13" height="13" rx="1" fill="#8a9a9a"/><rect x="52" y="79" width="13" height="13" rx="1" fill="#8a9a9a"/><rect x="67" y="64" width="13" height="13" rx="1" fill="#8a9a9a"/><rect x="82" y="64" width="13" height="13" rx="1" fill="#8a9a9a"/><rect x="97" y="64" width="13" height="13" rx="1" fill="#8a9a9a"/><rect x="97" y="79" width="13" height="13" rx="1" fill="#8a9a9a"/><rect x="127" y="64" width="13" height="13" rx="1" fill="#8a9a9a"/><rect x="127" y="79" width="13" height="13" rx="1" fill="#8a9a9a"/><rect x="142" y="64" width="13" height="13" rx="1" fill="#8a9a9a"/><rect x="157" y="64" width="13" height="13" rx="1" fill="#8a9a9a"/><rect x="172" y="64" width="13" height="13" rx="1" fill="#8a9a9a"/><rect x="172" y="79" width="13" height="13" rx="1" fill="#8a9a9a"/><rect x="202" y="64" width="13" height="13" rx="1" fill="#8a9a9a"/><rect x="202" y="79" width="13" height="13" rx="1" fill="#8a9a9a"/><rect x="217" y="64" width="13" height="13" rx="1" fill="#8a9a9a"/><rect x="232" y="64" width="13" height="13" rx="1" fill="#8a9a9a"/><rect x="247" y="64" width="13" height="13" rx="1" fill="#8a9a9a"/><rect x="247" y="79" width="13" height="13" rx="1" fill="#8a9a9a"/><rect x="277" y="64" width="13" height="13" rx="1" fill="#8a9a9a"/><rect x="277" y="79" width="13" height="13" rx="1" fill="#8a9a9a"/><rect x="292" y="64" width="13" height="13" rx="1" fill="#8a9a9a"/><rect x="307" y="64" width="13" height="13" rx="1" fill="#8a9a9a"/><rect x="322" y="79" width="13" height="13" rx="1" fill="#8a9a9a"/><rect x="352" y="64" width="13" height="13" rx="1" fill="#a7c080"/><rect x="352" y="79" width="13" height="13" rx="1" fill="#a7c080"/><rect x="397" y="64" width="13" height="13" rx="1" fill="#a7c080"/><rect x="397" y="79" width="13" height="13" rx="1" fill="#a7c080"/><rect x="427" y="64" width="13" height="13" rx="1" fill="#a7c080"/><rect x="427" y="79" width="13" height="13" rx="1" fill="#a7c080"/><rect x="442" y="64" width="13" height="13" rx="1" fill="#a7c080"/><rect x="457" y="64" width="13" height="13" rx="1" fill="#a7c080"/><rect x="472" y="64" width="13" height="13" rx="1" fill="#a7c080"/><rect x="472" y="79" width="13" height="13" rx="1" fill="#a7c080"/><rect x="502" y="64" width="13" height="13" rx="1" fill="#a7c080"/><rect x="502" y="79" width="13" height="13" rx="1" fill="#a7c080"/><rect x="517" y="64" width="13" height="13" rx="1" fill="#a7c080"/><rect x="532" y="64" width="13" height="13" rx="1" fill="#a7c080"/><rect x="547" y="64" width="13" height="13" rx="1" fill="#a7c080"/><rect x="577" y="64" width="13" height="13" rx="1" fill="#a7c080"/><rect x="592" y="64" width="13" height="13" rx="1" fill="#a7c080"/><rect x="592" y="79" width="13" height="13" rx="1" fill="#a7c080"/><rect x="607" y="64" width="13" height="13" rx="1" fill="#a7c080"/><rect x="622" y="64" width="13" height="13" rx="1" fill="#a7c080"/><rect x="52" y="94" width="13" height="13" rx="1" fill="#8a9a9a"/><rect x="52" y="109" width="13" height="13" rx="1" fill="#8a9a9a"/><rect x="97" y="94" width="13" height="13" rx="1" fill="#8a9a9a"/><rect x="97" y="109" width="13" height="13" rx="1" fill="#8a9a9a"/><rect x="127" y="94" width="13" height="13" rx="1" fill="#8a9a9a"/><rect x="127" y="109" width="13" height="13" rx="1" fill="#8a9a9a"/><rect x="172" y="94" width="13" height="13" rx="1" fill="#8a9a9a"/><rect x="172" y="109" width="13" height="13" rx="1" fill="#8a9a9a"/><rect x="202" y="94" width="13" height="13" rx="1" fill="#8a9a9a"/><rect x="202" y="109" width="13" height="13" rx="1" fill="#8a9a9a"/><rect x="217" y="94" width="13" height="13" rx="1" fill="#8a9a9a"/><rect x="232" y="94" width="13" height="13" rx="1" fill="#8a9a9a"/><rect x="247" y="94" width="13" height="13" rx="1" fill="#8a9a9a"/><rect x="277" y="94" width="13" height="13" rx="1" fill="#8a9a9a"/><rect x="277" y="109" width="13" height="13" rx="1" fill="#8a9a9a"/><rect x="322" y="94" width="13" height="13" rx="1" fill="#8a9a9a"/><rect x="322" y="109" width="13" height="13" rx="1" fill="#8a9a9a"/><rect x="352" y="94" width="13" height="13" rx="1" fill="#a7c080"/><rect x="352" y="109" width="13" height="13" rx="1" fill="#a7c080"/><rect x="397" y="94" width="13" height="13" rx="1" fill="#a7c080"/><rect x="397" y="109" width="13" height="13" rx="1" fill="#a7c080"/><rect x="427" y="94" width="13" height="13" rx="1" fill="#a7c080"/><rect x="427" y="109" width="13" height="13" rx="1" fill="#a7c080"/><rect x="442" y="94" width="13" height="13" rx="1" fill="#a7c080"/><rect x="457" y="94" width="13" height="13" rx="1" fill="#a7c080"/><rect x="472" y="94" width="13" height="13" rx="1" fill="#a7c080"/><rect x="472" y="109" width="13" height="13" rx="1" fill="#a7c080"/><rect x="502" y="94" width="13" height="13" rx="1" fill="#a7c080"/><rect x="517" y="94" width="13" height="13" rx="1" fill="#a7c080"/><rect x="532" y="94" width="13" height="13" rx="1" fill="#a7c080"/><rect x="547" y="94" width="13" height="13" rx="1" fill="#a7c080"/><rect x="547" y="109" width="13" height="13" rx="1" fill="#a7c080"/><rect x="592" y="94" width="13" height="13" rx="1" fill="#a7c080"/><rect x="592" y="109" width="13" height="13" rx="1" fill="#a7c080"/><rect x="52" y="124" width="13" height="13" rx="1" fill="#8a9a9a"/><rect x="67" y="124" width="13" height="13" rx="1" fill="#8a9a9a"/><rect x="82" y="124" width="13" height="13" rx="1" fill="#8a9a9a"/><rect x="97" y="124" width="13" height="13" rx="1" fill="#8a9a9a"/><rect x="127" y="124" width="13" height="13" rx="1" fill="#8a9a9a"/><rect x="127" y="139" width="13" height="13" rx="1" fill="#8a9a9a"/><rect x="142" y="124" width="13" height="13" rx="1" fill="#8a9a9a"/><rect x="157" y="124" width="13" height="13" rx="1" fill="#8a9a9a"/><rect x="172" y="124" width="13" height="13" rx="1" fill="#8a9a9a"/><rect x="202" y="124" width="13" height="13" rx="1" fill="#8a9a9a"/><rect x="217" y="124" width="13" height="13" rx="1" fill="#8a9a9a"/><rect x="232" y="124" width="13" height="13" rx="1" fill="#8a9a9a"/><rect x="247" y="124" width="13" height="13" rx="1" fill="#8a9a9a"/><rect x="277" y="124" width="13" height="13" rx="1" fill="#8a9a9a"/><rect x="322" y="124" width="13" height="13" rx="1" fill="#8a9a9a"/><rect x="367" y="124" width="13" height="13" rx="1" fill="#a7c080"/><rect x="382" y="124" width="13" height="13" rx="1" fill="#a7c080"/><rect x="427" y="124" width="13" height="13" rx="1" fill="#a7c080"/><rect x="472" y="124" width="13" height="13" rx="1" fill="#a7c080"/><rect x="502" y="124" width="13" height="13" rx="1" fill="#a7c080"/><rect x="517" y="124" width="13" height="13" rx="1" fill="#a7c080"/><rect x="532" y="124" width="13" height="13" rx="1" fill="#a7c080"/><rect x="547" y="124" width="13" height="13" rx="1" fill="#a7c080"/><rect x="592" y="124" width="13" height="13" rx="1" fill="#a7c080"/><rect x="607" y="124" width="13" height="13" rx="1" fill="#a7c080"/>
  <text x="52" y="198" fill="#7fbbb3" font-size="19">❯</text>
  <text x="74" y="198" fill="#9aa39a" font-size="19">rent GPUs · run llama.cpp · wire your coding agent</text>
</svg>
